<svg width="88" height="88" viewBox="0 0 88 88" fill="none" xmlns="http://www.w3.org/2000/svg">
<path d="M77 3H11C6.58172 3 3 6.58173 3 11V77C3 81.4183 6.58172 85 11 85H77C81.4183 85 85 81.4183 85 77V11C85 6.58172 81.4183 3 77 3Z" stroke="#FFEA00" stroke-width="4.8" stroke-miterlimit="10"/>
<path d="M85 23.346C85 24.4505 84.1046 25.346 83 25.346H60.5943H53.1716H5C3.89543 25.346 3 24.4505 3 23.346V5C3 3.89543 3.89543 3 5 3H83C84.1046 3 85 3.89543 85 5V23.346Z" stroke="#FFEA00" stroke-width="5" stroke-miterlimit="10"/>
<path d="M14.1924 14.1924H21.6151" stroke="#FFEA00" stroke-width="4.8" stroke-miterlimit="10"/>
<path d="M29.0768 14.1924H36.5384" stroke="#FFEA00" stroke-width="4.8" stroke-miterlimit="10"/>
<path d="M44 14.1924H51.4616" stroke="#FFEA00" stroke-width="4.8" stroke-miterlimit="10"/>
</svg>
