<svg width="82" height="82" viewBox="0 0 82 82" fill="none" xmlns="http://www.w3.org/2000/svg">
<path d="M24.0198 0.286747C19.6573 0.492569 16.6782 1.18876 14.0739 2.21213C11.3785 3.26256 9.09396 4.67215 6.8209 6.95342C4.54783 9.23468 3.14808 11.5209 2.10503 14.2203C1.0956 16.8304 0.411711 19.812 0.219009 24.1769C0.0263068 28.5418 -0.0163337 29.9448 0.00498653 41.0789C0.0263067 52.213 0.0755073 53.6086 0.287069 57.9825C0.495351 62.3442 1.18908 65.3224 2.21245 67.9276C3.26452 70.623 4.67247 72.9067 6.95456 75.1806C9.23664 77.4545 11.5212 78.8509 14.2272 79.8956C16.8348 80.9034 19.8172 81.5906 24.1813 81.7816C28.5454 81.9727 29.9501 82.017 41.0808 81.9957C52.2116 81.9743 53.613 81.9251 57.9861 81.7177C62.3592 81.5102 65.3219 80.8116 67.9279 79.7931C70.6233 78.7386 72.9086 77.3331 75.1809 75.0502C77.4531 72.7673 78.8521 70.4795 79.8943 67.7784C80.9045 65.1707 81.5909 62.1884 81.7803 57.8276C81.9714 53.4512 82.0165 52.0539 81.9952 40.9214C81.9738 29.789 81.9238 28.3934 81.7164 24.0211C81.5089 19.6488 80.8143 16.6795 79.7918 14.0727C78.7381 11.3774 77.3318 9.09528 75.0505 6.81975C72.7692 4.54423 70.4798 3.14612 67.7795 2.10635C65.1702 1.09692 62.1895 0.408928 57.8254 0.220326C53.4613 0.0317245 52.0567 -0.016656 40.9218 0.00466426C29.7869 0.0259845 28.3929 0.073545 24.0198 0.286747ZM24.4986 74.4057C20.5011 74.2318 18.3305 73.5676 16.884 73.0117C14.9685 72.2736 13.604 71.3815 12.1624 69.9538C10.7209 68.5262 9.83525 67.1568 9.0874 65.2453C8.52569 63.7989 7.84919 61.6308 7.66222 57.6332C7.45886 53.3126 7.41622 52.0153 7.39244 41.069C7.36866 30.1228 7.41048 28.8271 7.5999 24.5049C7.77046 20.5106 8.43877 18.3376 8.99392 16.8919C9.73193 14.9739 10.6208 13.6119 12.0517 12.1711C13.4826 10.7304 14.848 9.84312 16.761 9.09528C18.2059 8.53111 20.374 7.86034 24.3699 7.6701C28.6938 7.4651 29.9894 7.4241 40.9341 7.40032C51.8787 7.37654 53.1776 7.41754 57.5031 7.60778C61.4974 7.78162 63.6712 8.44337 65.1153 9.0018C67.0316 9.7398 68.3953 10.6262 69.8361 12.0596C71.2768 13.493 72.1649 14.8534 72.9127 16.7706C73.4777 18.2113 74.1485 20.3786 74.3371 24.377C74.5429 28.7009 74.5897 29.9973 74.6093 40.9411C74.629 51.885 74.5905 53.1847 74.4011 57.5053C74.2264 61.5028 73.5638 63.6742 73.007 65.1223C72.269 67.0371 71.3793 68.4024 69.9476 69.8423C68.5159 71.2822 67.1522 72.1695 65.2383 72.9174C63.7951 73.4807 61.6245 74.1531 57.6319 74.3433C53.308 74.5467 52.0124 74.5893 41.0636 74.6131C30.1149 74.6369 28.8234 74.5926 24.4995 74.4057M57.923 19.0871C57.9246 20.0602 58.2148 21.0111 58.7568 21.8193C59.2989 22.6275 60.0684 23.2569 60.9682 23.6277C61.8679 23.9985 62.8574 24.0942 63.8115 23.9027C64.7657 23.7111 65.6415 23.2409 66.3284 22.5515C67.0153 21.8621 67.4823 20.9845 67.6703 20.0297C67.8584 19.0749 67.7591 18.0857 67.3849 17.1873C67.0108 16.289 66.3787 15.5217 65.5685 14.9827C64.7582 14.4436 63.8064 14.1569 62.8332 14.1588C61.5286 14.1614 60.2785 14.6821 59.3577 15.6063C58.4369 16.5304 57.9208 17.7825 57.923 19.0871ZM19.9484 41.0412C19.9714 52.6689 29.4146 62.0736 41.0398 62.0514C52.6651 62.0293 62.0763 52.5869 62.0542 40.9592C62.0321 29.3314 52.5864 19.9243 40.9595 19.9473C29.3326 19.9702 19.9263 29.4151 19.9484 41.0412ZM27.3334 41.0264C27.3281 38.3233 28.1244 35.6793 29.6217 33.4288C31.119 31.1783 33.25 29.4224 35.7453 28.383C38.2406 27.3436 40.988 27.0676 43.6402 27.5896C46.2924 28.1117 48.7302 29.4086 50.6454 31.3162C52.5605 33.2238 53.867 35.6564 54.3996 38.3065C54.9322 40.9566 54.667 43.7051 53.6375 46.2045C52.608 48.7039 50.8605 50.8419 48.616 52.3481C46.3714 53.8543 43.7306 54.6611 41.0275 54.6664C39.2327 54.6702 37.4547 54.3204 35.7951 53.6369C34.1354 52.9534 32.6267 51.9497 31.355 50.6831C30.0834 49.4164 29.0737 47.9117 28.3837 46.2548C27.6936 44.5979 27.3367 42.8213 27.3334 41.0264Z" fill="#FFEA00"/>
</svg>
