<svg width="82" height="82" viewBox="0 0 82 82" fill="none" xmlns="http://www.w3.org/2000/svg">
<path fill-rule="evenodd" clip-rule="evenodd" d="M82 41C82 63.6437 63.6437 82 41 82C18.3563 82 0 63.6437 0 41C0 18.3563 18.3563 0 41 0C63.6437 0 82 18.3563 82 41ZM50.6758 19.0938C51.2605 22.2374 53.1318 24.9356 55.7266 26.6212C57.5339 27.7951 59.6878 28.4802 62 28.4802V36.7324C57.7066 36.7324 53.7273 35.3635 50.4801 33.0409V49.8115C50.4801 58.1865 43.6438 65 35.2407 65C31.9934 65 28.9818 63.9802 26.5065 62.2476C22.5755 59.4977 20 54.9502 20 49.8115C20 41.4352 26.8363 34.6218 35.2395 34.6218C35.9365 34.6218 36.6202 34.6784 37.2931 34.7699V43.1943C36.6432 42.992 35.9558 42.874 35.2395 42.874C31.4027 42.874 28.2799 45.9864 28.2799 49.8115C28.2799 52.4748 29.796 54.7888 32.0116 55.9507C32.978 56.4576 34.0749 56.7478 35.2407 56.7478C38.9892 56.7478 42.048 53.7751 42.1869 50.0716L42.2002 17H50.4801C50.4801 17.7152 50.5502 18.4147 50.6758 19.0938Z" fill="#FFEA00"/>
</svg>
