<svg width="88" height="88" viewBox="0 0 88 88" fill="none" xmlns="http://www.w3.org/2000/svg">
<path d="M68.705 24.1931C68.4585 24.152 68.171 24.152 67.9246 24.1931C62.2567 23.9877 57.7388 19.3466 57.7388 13.5965C57.7388 7.72327 62.462 3 68.3353 3C74.2086 3 78.9319 7.76434 78.9319 13.5965C78.8908 19.3466 74.3729 23.9877 68.705 24.1931Z" stroke="#FFEA00" stroke-width="5" stroke-linecap="round" stroke-linejoin="round"/>
<path d="M64.4743 54.0934C70.1011 55.038 76.303 54.0523 80.6566 51.1362C86.4477 47.2754 86.4477 40.9504 80.6566 37.0896C76.2619 34.1737 69.9779 33.1879 64.3511 34.1736" stroke="#FFEA00" stroke-width="5" stroke-linecap="round" stroke-linejoin="round"/>
<path d="M19.2955 24.1931C19.5419 24.152 19.8294 24.152 20.0759 24.1931C25.7438 23.9877 30.2617 19.3466 30.2617 13.5965C30.2617 7.72327 25.5384 3 19.6651 3C13.7919 3 9.0686 7.76434 9.0686 13.5965C9.10968 19.3466 13.6276 23.9877 19.2955 24.1931Z" stroke="#FFEA00" stroke-width="5" stroke-linecap="round" stroke-linejoin="round"/>
<path d="M23.5257 54.0934C17.8988 55.038 11.697 54.0523 7.34335 51.1362C1.55222 47.2754 1.55222 40.9504 7.34335 37.0896C11.738 34.1737 18.022 33.1879 23.6489 34.1736" stroke="#FFEA00" stroke-width="5" stroke-linecap="round" stroke-linejoin="round"/>
<path d="M44.0618 54.8738C43.8154 54.8327 43.5279 54.8327 43.2814 54.8738C37.6135 54.6684 33.0955 50.0273 33.0955 44.2772C33.0955 38.4039 37.8189 33.6805 43.6922 33.6805C49.5654 33.6805 54.2887 38.445 54.2887 44.2772C54.2476 50.0273 49.7297 54.7095 44.0618 54.8738Z" stroke="#FFEA00" stroke-width="5" stroke-linecap="round" stroke-linejoin="round"/>
<path d="M32.1097 67.8115C26.3186 71.6722 26.3186 77.9973 32.1097 81.8581C38.6813 86.2528 49.4422 86.2528 56.0137 81.8581C61.8048 77.9973 61.8048 71.6722 56.0137 67.8115C49.4832 63.4579 38.6813 63.4579 32.1097 67.8115Z" stroke="#FFEA00" stroke-width="5" stroke-linecap="round" stroke-linejoin="round"/>
</svg>
