<svg width="86" height="86" viewBox="0 0 86 86" fill="none" xmlns="http://www.w3.org/2000/svg">
<path d="M74.003 22.5C74.9407 17.1504 70.8238 12.25 65.393 12.25H20.6053C15.1742 12.25 11.0578 17.1504 11.9951 22.5" stroke="#FFEA00" stroke-width="3.75"/>
<path d="M65.5497 12.25C65.6662 11.1878 65.7244 10.6565 65.7252 10.2178C65.7346 6.02096 62.5731 2.49462 58.4001 2.04682C57.9639 2 57.4296 2 56.3612 2H29.6381C28.5695 2 28.0352 2 27.5989 2.04682C23.426 2.49462 20.2648 6.02096 20.2739 10.2178C20.2749 10.6565 20.3331 11.1877 20.4494 12.25" stroke="#FFEA00" stroke-width="3.75"/>
<path d="M80.6934 62.6513C79.2592 72.823 78.5426 77.9087 74.864 80.9546C71.1855 84.0001 65.76 84.0001 54.9089 84.0001H31.091C20.2401 84.0001 14.8147 84.0001 11.1362 80.9546C7.45772 77.9087 6.74067 72.823 5.30657 62.6513L3.57239 50.3513C1.74367 37.3806 0.829327 30.8954 4.71552 26.6977C8.6017 22.5 15.5201 22.5 29.3568 22.5H56.6432C70.4799 22.5 77.3982 22.5 81.2846 26.6977C84.3547 30.014 84.4285 34.7581 83.4228 43" stroke="#FFEA00" stroke-width="3.75" stroke-linecap="round"/>
<path d="M53.583 49.6251C55.8724 51.0446 55.8724 54.7186 53.583 56.138L39.7594 64.7074C37.5343 66.0867 34.8 64.2917 34.8 61.4512V44.3119C34.8 41.4719 37.5343 39.6765 39.7594 41.0557L53.583 49.6251Z" stroke="#FFEA00" stroke-width="3.75"/>
</svg>
