<svg width="82" height="82" viewBox="0 0 82 82" fill="none" xmlns="http://www.w3.org/2000/svg">
<path d="M82 41C82 18.3563 63.6437 3.8147e-05 41 3.8147e-05C18.3563 3.8147e-05 0 18.3563 0 41C0 61.4643 14.9931 78.4261 34.5938 81.502V52.8516H24.1836V41H34.5938V31.9672C34.5938 21.6916 40.7148 16.0157 50.0801 16.0157C54.5658 16.0157 59.2578 16.8164 59.2578 16.8164V26.9063H54.0878C48.9946 26.9063 47.4062 30.0667 47.4062 33.3091V41H58.7773L56.9596 52.8516H47.4062V81.502C67.0069 78.4261 82 61.4643 82 41Z" fill="#FFEA00"/>
</svg>
