<svg width="31" height="31" viewBox="0 0 31 31" fill="none" xmlns="http://www.w3.org/2000/svg">
<path d="M20.822 0C23.122 0 24.9864 1.86447 24.9864 4.1644C24.9864 4.93104 24.3649 5.55253 23.5983 5.55253C22.8316 5.55253 22.2101 4.93104 22.2101 4.1644C22.2101 3.39776 21.5887 2.77627 20.822 2.77627H4.1644C3.39776 2.77627 2.77627 3.39776 2.77627 4.1644V26.3745C2.77627 27.1412 3.39776 27.7627 4.1644 27.7627H20.822C21.5887 27.7627 22.2101 27.1412 22.2101 26.3745V24.9864C22.2101 24.2197 22.8316 23.5983 23.5983 23.5983C24.3649 23.5983 24.9864 24.2197 24.9864 24.9864V26.3745C24.9864 28.6745 23.122 30.5389 20.822 30.5389H4.1644C1.86447 30.5389 0 28.6745 0 26.3745V4.1644C0 1.86447 1.86447 0 4.1644 0H20.822Z" fill="#04001B"/>
<path fill-rule="evenodd" clip-rule="evenodd" d="M27.4837 9.99577C27.0675 9.57957 26.3928 9.57957 25.9765 9.99577L15.1536 20.8188C14.949 21.0233 14.8134 21.2868 14.7659 21.5722L14.5376 22.942L15.9074 22.7136C16.1928 22.6661 16.4562 22.5305 16.6607 22.326L27.4837 11.503C27.9 11.0868 27.9 10.412 27.4837 9.99577ZM24.0134 8.03266C25.5138 6.53225 27.9465 6.53224 29.4469 8.03265C30.9472 9.53307 30.9472 11.9657 29.4469 13.4661L18.6239 24.2891C18.0101 24.9028 17.22 25.3094 16.3638 25.4521L14.994 25.6805C13.115 25.9936 11.4859 24.3647 11.7991 22.4855L12.0274 21.1157C12.1701 20.2595 12.5767 19.4694 13.1904 18.8556L24.0134 8.03266Z" fill="#04001B"/>
<path d="M5.55249 8.32881C5.55249 7.56217 6.17399 6.94067 6.94062 6.94067H18.0457C18.8124 6.94067 19.4338 7.56217 19.4338 8.32881C19.4338 9.09545 18.8124 9.71694 18.0457 9.71694H6.94062C6.17399 9.71694 5.55249 9.09545 5.55249 8.32881Z" fill="#04001B"/>
<path d="M5.55249 13.8813C5.55249 13.1147 6.17399 12.4932 6.94062 12.4932H12.4932C13.2598 12.4932 13.8813 13.1147 13.8813 13.8813C13.8813 14.648 13.2598 15.2695 12.4932 15.2695H6.94062C6.17399 15.2695 5.55249 14.648 5.55249 13.8813Z" fill="#04001B"/>
<path d="M5.55249 19.4339C5.55249 18.6672 6.17399 18.0457 6.94062 18.0457H8.32876C9.0954 18.0457 9.71689 18.6672 9.71689 19.4339C9.71689 20.2005 9.0954 20.822 8.32876 20.822H6.94062C6.17399 20.822 5.55249 20.2005 5.55249 19.4339Z" fill="#04001B"/>
</svg>
