<svg width="88" height="88" viewBox="0 0 88 88" fill="none" xmlns="http://www.w3.org/2000/svg">
<path d="M52.5122 65.4054L44.2283 57.1904C40.4211 53.415 38.5172 51.5271 36.3254 50.819C34.3974 50.1958 32.3224 50.1958 30.394 50.819C28.2023 51.5271 26.2986 53.415 22.4911 57.1904L3.20237 76.6177M52.5122 65.4054L54.1585 63.7721C58.0462 59.9172 59.9896 57.9897 62.22 57.2864C64.1813 56.6676 66.2887 56.6917 68.2355 57.3554C70.4485 58.1103 72.3475 60.0816 76.1451 64.0249L80.1766 68.1181M52.5122 65.4054L71.5907 84.8206M3.20237 76.6177C3.3505 77.8737 3.60707 78.8601 4.0516 79.7327C4.97647 81.5478 6.45232 83.0238 8.26751 83.9485C10.3311 85 13.0325 85 18.4354 85H64.7413C67.7382 85 69.9039 85 71.5907 84.8206M3.20237 76.6177C3.00012 74.9024 3.00012 72.6836 3.00012 69.5647V23.2588C3.00012 17.856 3.00012 15.1545 4.0516 13.0909C4.97647 11.2757 6.45232 9.79987 8.26751 8.87501C10.3311 7.82353 13.0325 7.82353 18.4354 7.82353H36.7648M71.5907 84.8206C72.9447 84.6763 73.9904 84.4168 74.9093 83.9485C76.7244 83.0238 78.2004 81.5478 79.1251 79.7327C80.1766 77.6692 80.1766 74.9675 80.1766 69.5647V51.2353M70.5295 31.9412V17.4706M70.5295 17.4706V3M70.5295 17.4706H85.0001M70.5295 17.4706H56.0589" stroke="#FFEA00" stroke-width="5" stroke-linecap="round" stroke-linejoin="round"/>
</svg>
