<svg width="40" height="40" viewBox="0 0 40 40" fill="none" xmlns="http://www.w3.org/2000/svg">
<path fill-rule="evenodd" clip-rule="evenodd" d="M40 20C40 31.0457 31.0457 40 20 40C8.9543 40 0 31.0457 0 20C0 8.9543 8.9543 0 20 0C31.0457 0 40 8.9543 40 20ZM20.7166 14.7663C18.754 15.5763 14.8599 17.2274 9.03436 19.7819C8.09978 20.1557 7.60134 20.5296 7.53903 20.8723C7.45661 21.4767 8.22229 21.7177 9.25906 22.044C9.39783 22.0877 9.54146 22.1329 9.68857 22.1807C10.7166 22.5233 12.0873 22.9283 12.8038 22.9283C13.458 22.9283 14.1745 22.6791 14.9845 22.1184C20.4362 18.4423 23.24 16.5732 23.4269 16.542C23.5515 16.5109 23.7073 16.4797 23.8319 16.5732C23.9391 16.6536 23.931 16.8033 23.9266 16.8832C23.9259 16.8961 23.9253 16.9072 23.9253 16.9159C23.8577 17.2314 21.1489 19.7479 19.5496 21.2337C18.9381 21.8017 18.4889 22.2191 18.4113 22.3053C18.2578 22.463 18.1014 22.6126 17.9508 22.7566C17.0009 23.6651 16.2811 24.3535 17.9752 25.4828C18.8871 26.0797 19.596 26.5619 20.3227 27.0561C20.9615 27.4906 21.6139 27.9343 22.43 28.4735C22.6685 28.6259 22.8972 28.7853 23.1205 28.941C23.947 29.5174 24.7001 30.0424 25.6076 29.9688C26.1372 29.9065 26.6979 29.4081 26.9783 27.9128C27.6636 24.3925 28.9409 16.6978 29.2524 13.5514C29.2836 13.271 29.2524 12.9283 29.2213 12.7726C29.1901 12.6168 29.1278 12.3987 28.9409 12.243C28.6917 12.0561 28.3179 12.0249 28.1621 12.0249C27.4144 12.0561 26.2618 12.461 20.7166 14.7663Z" fill="white"/>
</svg>
