<svg width="57" height="40" viewBox="0 0 57 40" fill="none" xmlns="http://www.w3.org/2000/svg">
<path fill-rule="evenodd" clip-rule="evenodd" d="M50.7425 1.19419C53.1938 1.85129 55.124 3.78742 55.7792 6.24613C56.9697 10.7024 56.9697 20 56.9697 20C56.9697 20 56.9697 29.2975 55.7792 33.7542C55.124 36.2126 53.1938 38.1487 50.7425 38.8061C46.2999 40 28.4848 40 28.4848 40C28.4848 40 10.6699 40 6.22714 38.8061C3.77605 38.1487 1.84555 36.2126 1.19045 33.7542C0 29.2975 0 20 0 20C0 20 0 10.7024 1.19045 6.24613C1.84555 3.78742 3.77605 1.85129 6.22714 1.19419C10.6699 0 28.4848 0 28.4848 0C28.4848 0 46.2999 0 50.7425 1.19419ZM37.5483 20.0003L22.6584 28.4414V11.5583L37.5483 20.0003Z" fill="white"/>
</svg>
