<svg width="40" height="40" viewBox="0 0 40 40" fill="none" xmlns="http://www.w3.org/2000/svg">
<path fill-rule="evenodd" clip-rule="evenodd" d="M2.80689 2.80689C0 5.61378 0 10.1314 0 19.1667V20.8333C0 29.8686 0 34.3862 2.80689 37.1931C5.61378 40 10.1314 40 19.1667 40H20.8333C29.8686 40 34.3862 40 37.1931 37.1931C40 34.3862 40 29.8686 40 20.8333V19.1667C40 10.1314 40 5.61378 37.1931 2.80689C34.3862 0 29.8686 0 20.8333 0H19.1667C10.1314 0 5.61378 0 2.80689 2.80689ZM8.1495 12.5371H11.0233C11.7577 12.5371 12.0341 12.857 12.3095 13.6488C13.715 17.7225 16.0849 21.2827 17.0591 21.2827C17.4244 21.2827 17.592 21.1153 17.592 20.1921V15.9813C17.526 14.7827 17.1052 14.2643 16.7935 13.8804C16.601 13.6433 16.4501 13.4575 16.4501 13.1944C16.4501 12.8745 16.7248 12.5371 17.1814 12.5371H21.6974C22.3064 12.5371 22.5185 12.8611 22.5185 13.5882V19.253C22.5185 19.8588 22.7829 20.0709 22.9655 20.0709C23.3309 20.0709 23.6354 19.8588 24.3052 19.1924C26.3755 16.8901 27.8369 13.3457 27.8369 13.3457C28.0196 12.9217 28.3565 12.5371 29.0872 12.5371H31.961C32.83 12.5371 33.0127 12.9823 32.83 13.5882C32.4647 15.2543 28.9634 20.1618 28.9634 20.1618C28.6589 20.6464 28.5372 20.8888 28.9634 21.4341C29.1135 21.6432 29.4338 21.9553 29.8002 22.3125C30.1771 22.6798 30.6028 23.0947 30.9424 23.494C32.1769 24.8758 33.1072 26.0415 33.3663 26.8449C33.6032 27.651 33.1926 28.0595 32.3715 28.0595H29.4977C28.728 28.0595 28.3404 27.6305 27.5029 26.7036C27.1479 26.3106 26.712 25.8282 26.132 25.251C24.427 23.6152 23.6963 23.4031 23.27 23.4031C22.6916 23.4031 22.5185 23.5662 22.5185 24.3831V26.9474C22.5185 27.651 22.2925 28.0595 20.4658 28.0595C17.4212 28.0595 14.0754 26.2203 11.7006 22.8276C8.13847 17.8595 7.16418 14.1032 7.16418 13.3457C7.16418 12.9217 7.32841 12.5371 8.1495 12.5371Z" fill="white"/>
</svg>
